<mxfile host="65bd71144e">
    <diagram id="ewwaDVcVG8yMSyDUCgGy" name="Page-1">
        <mxGraphModel dx="437" dy="603" grid="1" gridSize="10" guides="1" tooltips="1" connect="1" arrows="1" fold="1" page="1" pageScale="1" pageWidth="827" pageHeight="1169" math="0" shadow="0">
            <root>
                <mxCell id="0"/>
                <mxCell id="1" parent="0"/>
                <mxCell id="60" style="edgeStyle=none;html=1;exitX=0.5;exitY=0;exitDx=0;exitDy=0;entryX=0;entryY=0.75;entryDx=0;entryDy=0;" parent="1" source="55" target="59" edge="1">
                    <mxGeometry relative="1" as="geometry"/>
                </mxCell>
                <mxCell id="55" value="&lt;table border=&quot;1&quot; width=&quot;100%&quot; cellpadding=&quot;4&quot; style=&quot;width: 100% ; height: 100% ; border-collapse: collapse&quot;&gt;&lt;tbody&gt;&lt;tr&gt;&lt;th align=&quot;center&quot;&gt;&lt;b&gt;Tienda&lt;/b&gt;&lt;/th&gt;&lt;/tr&gt;&lt;tr&gt;&lt;td align=&quot;center&quot;&gt;&lt;div style=&quot;text-align: justify&quot;&gt;&lt;span style=&quot;text-align: left&quot;&gt;- carrito: &amp;lt;carrito&amp;gt;&lt;/span&gt;&lt;/div&gt;&lt;div style=&quot;text-align: justify&quot;&gt;&lt;/div&gt;&lt;/td&gt;&lt;/tr&gt;&lt;tr&gt;&lt;td align=&quot;center&quot;&gt;&lt;div style=&quot;text-align: justify&quot;&gt;&lt;span style=&quot;text-align: left&quot;&gt;+ tienda&lt;/span&gt;&lt;/div&gt;&lt;div style=&quot;text-align: justify&quot;&gt;&lt;span style=&quot;text-align: left&quot;&gt;+&amp;nbsp;&lt;/span&gt;&lt;span style=&quot;text-align: left&quot;&gt;seleccionarProducto()&lt;/span&gt;&lt;/div&gt;&lt;div style=&quot;text-align: justify&quot;&gt;&lt;span&gt;+ verProductos()&lt;/span&gt;&lt;/div&gt;&lt;div style=&quot;text-align: justify&quot;&gt;+ verCarrito()&lt;span&gt;&lt;br&gt;&lt;/span&gt;&lt;/div&gt;&lt;div style=&quot;text-align: justify&quot;&gt;+ getTicket()&lt;/div&gt;&lt;span style=&quot;text-align: left&quot;&gt;&lt;div style=&quot;text-align: justify&quot;&gt;&lt;span style=&quot;text-align: left&quot;&gt;&lt;div style=&quot;text-align: justify&quot;&gt;+ terminarCompra()&lt;/div&gt;&lt;/span&gt;&lt;span style=&quot;text-align: left&quot;&gt;&lt;/span&gt;&lt;/div&gt;&lt;/span&gt;&lt;/td&gt;&lt;/tr&gt;&lt;/tbody&gt;&lt;/table&gt;" style="text;html=1;strokeColor=none;fillColor=none;overflow=fill;" parent="1" vertex="1">
                    <mxGeometry x="160" y="240" width="160" height="170" as="geometry"/>
                </mxCell>
                <mxCell id="65" style="edgeStyle=none;html=1;exitX=0;exitY=0.25;exitDx=0;exitDy=0;entryX=1;entryY=0.25;entryDx=0;entryDy=0;" edge="1" parent="1" source="56" target="55">
                    <mxGeometry relative="1" as="geometry"/>
                </mxCell>
                <mxCell id="56" value="&lt;table border=&quot;1&quot; width=&quot;100%&quot; cellpadding=&quot;4&quot; style=&quot;width: 100% ; height: 100% ; border-collapse: collapse&quot;&gt;&lt;tbody&gt;&lt;tr&gt;&lt;th align=&quot;center&quot;&gt;Carrito&lt;/th&gt;&lt;/tr&gt;&lt;tr&gt;&lt;td align=&quot;center&quot;&gt;&lt;div style=&quot;text-align: justify&quot;&gt;&lt;span style=&quot;text-align: left&quot;&gt;- numeroObjetos: int&lt;/span&gt;&lt;br&gt;&lt;/div&gt;&lt;div style=&quot;text-align: justify&quot;&gt;&lt;span style=&quot;text-align: left&quot;&gt;- idCompra:i nt&lt;/span&gt;&lt;/div&gt;&lt;div style=&quot;text-align: left&quot;&gt;-&amp;gt; carrito: vector&amp;lt;producto&amp;gt;&lt;/div&gt;&lt;/td&gt;&lt;/tr&gt;&lt;tr&gt;&lt;td align=&quot;center&quot;&gt;&lt;div style=&quot;text-align: justify&quot;&gt;+ carrito()&lt;/div&gt;&lt;div style=&quot;text-align: justify&quot;&gt;+&amp;nbsp;&lt;span&gt;getTotal()&lt;/span&gt;&lt;/div&gt;&lt;div style=&quot;text-align: justify&quot;&gt;+ listaProductosSeleccionados()&lt;/div&gt;&lt;div style=&quot;text-align: justify&quot;&gt;&lt;br&gt;&lt;/div&gt;&lt;/td&gt;&lt;/tr&gt;&lt;/tbody&gt;&lt;/table&gt;" style="text;html=1;strokeColor=none;fillColor=none;overflow=fill;" parent="1" vertex="1">
                    <mxGeometry x="400" y="240" width="210" height="160" as="geometry"/>
                </mxCell>
                <mxCell id="63" style="edgeStyle=none;html=1;exitX=0.25;exitY=0;exitDx=0;exitDy=0;entryX=0.75;entryY=1;entryDx=0;entryDy=0;" edge="1" parent="1" source="58" target="55">
                    <mxGeometry relative="1" as="geometry"/>
                </mxCell>
                <mxCell id="64" style="edgeStyle=none;html=1;exitX=0.75;exitY=0;exitDx=0;exitDy=0;entryX=0.25;entryY=1;entryDx=0;entryDy=0;" edge="1" parent="1" source="58" target="56">
                    <mxGeometry relative="1" as="geometry"/>
                </mxCell>
                <mxCell id="58" value="&lt;table border=&quot;1&quot; width=&quot;100%&quot; cellpadding=&quot;4&quot; style=&quot;width: 100% ; height: 100% ; border-collapse: collapse&quot;&gt;&lt;tbody&gt;&lt;tr&gt;&lt;th align=&quot;center&quot;&gt;Producto&lt;/th&gt;&lt;/tr&gt;&lt;tr&gt;&lt;td align=&quot;center&quot;&gt;&lt;div style=&quot;text-align: justify&quot;&gt;- idProducto: int&lt;/div&gt;&lt;div style=&quot;text-align: justify&quot;&gt;- nombre: string&lt;/div&gt;&lt;div style=&quot;text-align: justify&quot;&gt;- precio: float&lt;/div&gt;&lt;div style=&quot;text-align: justify&quot;&gt;- cantidad: int&lt;/div&gt;&lt;/td&gt;&lt;/tr&gt;&lt;tr&gt;&lt;td align=&quot;center&quot;&gt;&lt;div style=&quot;text-align: left&quot;&gt;+ producto()&lt;/div&gt;&lt;div style=&quot;text-align: left&quot;&gt;+ seleccionarCantidad()&lt;/div&gt;&lt;div style=&quot;text-align: left&quot;&gt;+ getDescripcion()&lt;/div&gt;&lt;div style=&quot;text-align: left&quot;&gt;+ getPrecio()&lt;/div&gt;&lt;span style=&quot;text-align: left&quot;&gt;&lt;div style=&quot;text-align: justify&quot;&gt;&lt;/div&gt;&lt;/span&gt;&lt;span style=&quot;text-align: left&quot;&gt;&lt;div style=&quot;text-align: justify&quot;&gt;&lt;span&gt;+ getStock()&lt;/span&gt;&lt;br&gt;&lt;/div&gt;&lt;/span&gt;&lt;/td&gt;&lt;/tr&gt;&lt;/tbody&gt;&lt;/table&gt;" style="text;html=1;strokeColor=none;fillColor=none;overflow=fill;" parent="1" vertex="1">
                    <mxGeometry x="300" y="440" width="160" height="180" as="geometry"/>
                </mxCell>
                <mxCell id="59" value="&lt;table border=&quot;1&quot; width=&quot;100%&quot; cellpadding=&quot;4&quot; style=&quot;width: 100% ; height: 100% ; border-collapse: collapse&quot;&gt;&lt;tbody&gt;&lt;tr&gt;&lt;th align=&quot;center&quot;&gt;Menu principal&lt;/th&gt;&lt;/tr&gt;&lt;tr&gt;&lt;td align=&quot;center&quot;&gt;&lt;div style=&quot;text-align: left&quot;&gt;- opciones: string&lt;/div&gt;&lt;/td&gt;&lt;/tr&gt;&lt;tr&gt;&lt;td align=&quot;center&quot;&gt;&lt;div style=&quot;text-align: justify&quot;&gt;+ menuPrincipal()&lt;/div&gt;&lt;div style=&quot;text-align: justify&quot;&gt;+ mostrarOpciones()&lt;/div&gt;&lt;div style=&quot;text-align: justify&quot;&gt;+ seleccionOpcion()&lt;/div&gt;&lt;div style=&quot;text-align: justify&quot;&gt;+ salir()&lt;br&gt;&lt;/div&gt;&lt;/td&gt;&lt;/tr&gt;&lt;/tbody&gt;&lt;/table&gt;" style="text;html=1;strokeColor=none;fillColor=none;overflow=fill;" parent="1" vertex="1">
                    <mxGeometry x="290" y="40" width="160" height="160" as="geometry"/>
                </mxCell>
            </root>
        </mxGraphModel>
    </diagram>
</mxfile>